<?xml version="1.0" standalone="no"?>
<!DOCTYPE svg PUBLIC "-//W3C//DTD SVG 20010904//EN"
 "http://www.w3.org/TR/2001/REC-SVG-20010904/DTD/svg10.dtd">
<svg version="1.0" xmlns="http://www.w3.org/2000/svg"
 width="600.000000pt" height="600.000000pt" viewBox="0 0 600.000000 600.000000"
 preserveAspectRatio="xMidYMid meet">
<g transform="translate(0.000000,600.000000) scale(0.100000,-0.100000)"
fill="#000000" stroke="none">
<path d="M2910 4740 c-605 -75 -1111 -424 -1375 -950 -51 -102 -56 -130 -22
-130 15 0 26 9 35 28 22 52 133 195 216 281 430 443 1102 640 1738 511 238
-49 532 -174 713 -304 234 -169 443 -422 528 -638 18 -47 26 -58 44 -58 28 0
28 11 4 75 -123 330 -288 569 -538 782 -232 198 -531 335 -848 389 -109 18
-392 26 -495 14z m390 -31 c41 -5 91 -12 110 -15 19 -3 46 -7 60 -9 14 -1 24
-8 22 -14 -2 -9 3 -9 18 -1 11 6 20 7 20 2 0 -5 19 -13 43 -17 66 -13 69 -14
122 -28 27 -8 43 -16 35 -19 -8 -2 5 -8 29 -12 24 -4 56 -15 70 -24 14 -10 54
-31 88 -46 34 -16 60 -33 57 -37 -2 -4 5 -6 16 -4 12 2 20 -1 20 -10 0 -8 6
-12 14 -9 8 3 17 0 22 -7 5 -8 3 -10 -6 -4 -8 5 -11 4 -7 -3 4 -5 16 -8 26 -5
10 3 22 -1 26 -8 6 -8 4 -10 -5 -4 -9 5 -11 4 -6 -3 4 -7 14 -12 22 -12 8 0
14 -4 14 -10 0 -5 6 -10 13 -10 6 0 23 -10 37 -21 14 -11 19 -17 11 -13 -9 4
-12 3 -7 -4 4 -6 12 -9 19 -6 7 2 30 -16 51 -41 21 -25 42 -45 47 -45 5 0 20
-10 34 -22 17 -15 23 -28 19 -42 -3 -14 -2 -17 4 -8 7 10 11 10 22 -2 7 -9 17
-13 23 -9 5 3 7 1 4 -4 -4 -6 0 -13 8 -17 8 -3 22 -20 30 -38 8 -18 13 -25 10
-15 -9 32 16 7 35 -35 11 -24 20 -35 23 -26 4 10 6 9 6 -3 1 -8 12 -26 26 -39
14 -13 23 -30 20 -38 -2 -7 -1 -11 4 -8 11 7 23 -22 14 -36 -3 -6 -1 -8 4 -5
13 8 37 -18 29 -31 -3 -4 4 -14 14 -22 10 -8 17 -17 14 -22 -3 -4 0 -8 7 -8
10 0 10 -3 1 -12 -9 -10 -16 -8 -30 6 -12 13 -13 16 -2 11 8 -5 3 3 -12 18
-16 14 -28 31 -28 37 0 6 -6 8 -12 4 -7 -4 -10 -4 -6 1 4 4 -4 16 -17 27 -14
11 -25 29 -25 41 0 16 -3 18 -9 8 -11 -18 -25 4 -17 26 5 12 3 13 -6 5 -9 -7
-16 -6 -25 3 -6 7 -10 15 -7 18 3 2 -18 21 -45 42 -28 21 -48 42 -45 47 3 5 1
7 -4 6 -5 -2 -27 10 -47 27 -21 16 -46 34 -55 40 -9 5 -41 25 -71 43 -30 18
-63 38 -74 45 -11 7 -22 15 -25 18 -11 13 -76 43 -89 40 -7 -1 -10 2 -6 9 4 7
1 10 -6 9 -22 -3 -50 12 -42 24 3 6 1 7 -5 3 -13 -8 -112 32 -112 45 0 5 -8 9
-17 9 -15 0 -16 -2 -3 -10 9 -6 10 -10 3 -10 -6 0 -14 4 -18 9 -3 5 -20 13
-38 16 -17 4 -41 15 -51 24 -12 10 -16 11 -12 3 7 -11 4 -12 -10 -4 -11 6 -44
17 -74 25 -30 8 -64 18 -75 22 -17 6 -18 5 -5 -5 13 -10 12 -11 -3 -6 -11 3
-30 9 -43 12 -13 3 -22 9 -20 13 2 3 -17 6 -42 6 -26 0 -81 4 -122 8 -105 12
-249 14 -243 3 3 -4 -3 -6 -13 -2 -15 4 -179 -12 -279 -28 -56 -9 -182 -40
-200 -49 -18 -10 -35 -14 -72 -19 -7 -1 -13 -5 -13 -10 0 -4 -6 -8 -14 -8 -8
0 -51 -16 -96 -35 -45 -19 -88 -35 -95 -35 -7 0 -15 -4 -17 -8 -1 -4 -19 -18
-40 -30 -27 -17 -37 -19 -41 -10 -4 9 -6 7 -6 -3 -1 -18 -27 -34 -50 -30 -7 1
-10 -2 -6 -8 3 -6 0 -11 -8 -11 -8 0 -20 -7 -27 -15 -7 -8 -16 -12 -21 -9 -5
3 -9 0 -9 -6 0 -7 -7 -10 -14 -7 -11 4 -13 1 -9 -11 3 -9 3 -14 -2 -10 -4 4
-16 -2 -27 -14 -10 -12 -21 -19 -24 -16 -2 3 -23 -12 -46 -34 -22 -21 -53 -45
-70 -54 -16 -8 -27 -18 -24 -22 2 -4 -3 -14 -12 -22 -14 -13 -15 -12 -8 5 6
17 3 16 -17 -5 -14 -14 -22 -29 -20 -35 3 -5 -4 1 -15 14 l-19 24 33 34 c19
18 33 37 31 41 -2 8 81 93 144 147 19 17 28 26 19 20 -13 -9 -13 -8 -1 8 17
22 45 23 37 1 -3 -9 -2 -12 5 -9 6 4 8 13 5 20 -2 7 3 20 13 29 20 18 36 21
26 6 -3 -5 -1 -10 5 -10 6 0 9 8 6 18 -4 12 8 26 43 50 49 33 67 40 55 20 -4
-7 -3 -8 4 -4 6 4 9 12 6 19 -4 12 5 18 72 50 17 8 35 20 39 26 5 9 11 9 23
-1 12 -10 14 -10 8 0 -5 8 -1 12 10 12 10 0 14 3 11 7 -9 8 111 65 123 58 6
-4 10 -2 10 3 0 14 117 54 200 68 14 2 43 11 65 18 22 8 81 19 130 25 50 6
101 13 115 15 55 8 269 5 340 -5z m985 -427 c-3 -3 -11 0 -18 7 -9 10 -8 11 6
5 10 -3 15 -9 12 -12z m-2550 -304 c-6 -16 -9 -18 -16 -7 -7 12 -9 12 -9 0 0
-20 -39 -51 -56 -44 -12 4 -10 9 6 23 12 10 21 22 22 27 0 4 4 7 9 6 4 -2 5 5
2 14 -4 10 -2 14 4 10 6 -4 14 1 18 11 6 16 7 16 16 -1 6 -9 7 -27 4 -39z
m-69 -74 c-9 -6 -16 -15 -16 -20 0 -5 -13 -24 -29 -42 -16 -17 -32 -41 -36
-52 -4 -11 -11 -17 -17 -14 -7 4 -7 9 1 13 6 4 12 16 14 27 1 12 10 33 20 47
9 15 17 31 17 36 0 6 7 7 17 4 10 -4 14 -2 9 5 -4 7 1 10 14 9 19 -1 19 -3 6
-13z m2998 -124 c21 -53 20 -58 -5 -26 -11 14 -17 31 -13 38 5 8 2 9 -9 5 -17
-6 -23 4 -10 16 13 14 21 6 37 -33z"/>
<path d="M2302 4494 c-7 -8 -8 -14 -3 -14 10 0 25 19 20 25 -2 1 -10 -3 -17
-11z"/>
<path d="M3930 4500 c8 -5 20 -10 25 -10 6 0 3 5 -5 10 -8 5 -19 10 -25 10 -5
0 -3 -5 5 -10z"/>
<path d="M2087 4299 c7 -7 15 -10 18 -7 3 3 -2 9 -12 12 -14 6 -15 5 -6 -5z"/>
<path d="M1846 4143 c-6 -14 -5 -15 5 -6 7 7 10 15 7 18 -3 3 -9 -2 -12 -12z"/>
<path d="M1811 4107 c-13 -21 -12 -21 5 -5 10 10 16 20 13 22 -3 3 -11 -5 -18
-17z"/>
<path d="M4439 4073 c-13 -16 -12 -17 4 -4 16 13 21 21 13 21 -2 0 -10 -8 -17
-17z"/>
<path d="M4514 3974 c-1 -13 1 -24 5 -24 9 0 12 38 3 44 -4 2 -8 -7 -8 -20z"/>
<path d="M2946 4279 c-316 -43 -615 -206 -795 -433 -67 -84 -139 -202 -152
-248 -10 -40 -29 -51 -29 -18 0 19 -7 20 -130 20 -80 0 -130 -4 -130 -10 0 -5
14 -10 30 -10 40 0 77 -37 86 -86 4 -21 4 -188 1 -371 -6 -377 -6 -376 -77
-388 -80 -14 -37 -25 95 -25 131 0 176 11 97 24 -21 3 -47 15 -58 27 -18 20
-19 42 -21 368 l-2 346 30 -65 c30 -63 30 -67 20 -138 -14 -94 -14 -102 3
-102 8 0 20 20 27 45 12 39 29 61 29 36 0 -4 59 -128 130 -275 72 -147 130
-271 130 -277 0 -6 7 -9 16 -7 11 2 40 57 80 153 35 82 64 154 64 161 0 6 6
17 14 23 8 7 12 22 10 34 -2 12 -2 16 2 9 3 -6 10 -10 15 -6 13 8 11 0 -7 -39
-15 -32 -15 -39 1 -90 19 -61 53 -123 62 -114 3 4 1 26 -5 49 -35 142 -23 294
33 420 21 45 45 104 53 131 9 26 19 47 22 47 6 0 2 -666 -5 -696 -5 -22 -43
-44 -75 -44 -10 0 -22 -4 -25 -10 -4 -7 58 -10 179 -10 102 0 186 4 186 8 0 5
-19 12 -42 18 -69 15 -68 10 -66 432 l3 374 24 19 c13 10 36 19 52 19 16 0 29
5 29 10 0 6 -30 10 -71 10 -45 0 -68 -4 -64 -10 4 -6 10 -8 14 -5 5 2 3 -12
-5 -33 -10 -28 -13 -124 -14 -401 0 -324 2 -366 16 -383 20 -22 12 -26 -63
-30 -37 -2 -54 1 -58 10 -3 7 -1 11 3 8 4 -2 12 7 19 20 6 13 7 22 2 18 -5 -3
-9 114 -9 285 0 173 4 291 9 291 6 0 6 12 1 30 -5 17 -6 30 -3 30 3 0 0 7 -7
15 -6 8 -9 19 -5 25 3 5 -1 10 -9 10 -9 0 -16 5 -16 10 0 18 -41 -31 -43 -51
-1 -10 -5 -19 -9 -19 -4 0 -8 -9 -8 -19 0 -11 -4 -23 -10 -26 -5 -3 -10 -16
-10 -28 0 -18 -2 -19 -10 -7 -8 12 -10 11 -10 -6 0 -11 -7 -41 -16 -67 -17
-51 -40 -78 -40 -47 0 10 4 16 8 14 4 -3 5 8 2 24 -4 19 -1 34 9 43 7 7 12 21
9 31 -2 10 2 20 12 24 9 3 13 10 10 15 -8 14 6 50 17 44 5 -4 9 1 9 9 0 8 8
20 18 25 9 6 12 11 5 11 -7 0 -10 7 -7 15 4 8 11 12 17 8 6 -3 7 -1 3 6 -4 6
-1 18 8 26 11 11 16 12 19 2 3 -6 6 -2 6 11 1 15 5 21 12 16 7 -4 10 -1 7 7
-7 20 53 70 75 65 11 -3 16 -2 13 1 -3 3 3 17 14 31 32 40 133 93 182 94 16 1
31 5 34 10 3 4 15 8 27 8 14 0 3 -9 -32 -25 -30 -14 -56 -23 -59 -20 -3 3 -15
-3 -26 -13 -35 -31 -92 -62 -100 -54 -4 4 -6 0 -4 -8 2 -9 -3 -14 -12 -12 -12
3 -13 1 -2 -10 11 -11 18 -10 45 6 97 57 189 97 256 113 94 22 248 22 350 -1
41 -8 76 -14 79 -12 5 5 -66 37 -138 62 -85 30 -299 27 -400 -4 -286 -90 -470
-313 -499 -607 -7 -72 -18 -111 -55 -195 -41 -95 -46 -102 -54 -79 -6 13 -35
78 -67 144 -31 66 -84 179 -117 250 -34 72 -65 134 -69 139 -20 22 122 227
231 336 252 250 562 363 950 347 209 -9 362 -48 555 -142 115 -55 261 -160
327 -233 41 -46 58 -52 58 -23 0 24 -107 157 -186 232 -166 157 -388 270 -616
314 -101 20 -319 27 -412 14z m369 -33 c40 -5 142 -34 166 -47 11 -5 24 -7 29
-4 15 9 197 -77 260 -124 19 -14 42 -24 50 -22 8 1 12 0 8 -4 -4 -4 2 -16 12
-28 11 -11 23 -18 26 -14 7 7 34 -17 34 -31 0 -5 11 -14 25 -20 14 -6 25 -16
25 -22 0 -5 4 -9 9 -7 5 1 9 -1 10 -5 4 -27 -3 -28 -33 -4 -19 14 -40 26 -46
26 -6 0 -8 5 -5 10 3 6 -1 10 -9 10 -9 0 -16 5 -16 11 0 5 -4 7 -10 4 -10 -6
-60 22 -73 42 -4 7 -17 13 -27 13 -11 0 -20 5 -20 10 0 6 -5 10 -11 10 -5 0
-7 -4 -4 -10 3 -6 -1 -7 -9 -4 -9 3 -13 10 -10 15 3 5 -1 6 -9 3 -8 -3 -18 -1
-22 5 -3 6 -17 11 -31 11 -13 0 -24 4 -24 8 0 4 -8 8 -17 9 -10 1 -36 6 -58
12 -22 5 -53 13 -68 16 -15 3 -25 10 -22 15 4 6 -3 7 -17 2 -28 -10 -58 -4
-58 11 0 9 -2 9 -8 0 -6 -9 -19 -9 -52 -2 -25 6 -60 8 -78 5 -18 -2 -31 -2
-28 2 4 8 -68 6 -179 -4 -38 -3 -89 -7 -112 -7 -23 -1 -37 -5 -30 -9 7 -4 -3
-8 -23 -8 -19 0 -73 -14 -120 -30 -46 -16 -88 -26 -94 -23 -5 3 -7 2 -4 -3 3
-5 -9 -16 -28 -25 -18 -9 -31 -12 -28 -8 3 5 -2 6 -10 3 -9 -3 -13 -11 -9 -18
3 -6 2 -8 -2 -3 -5 4 -19 0 -32 -8 -13 -9 -29 -13 -35 -9 -7 4 -8 3 -4 -4 4
-7 1 -12 -9 -12 -9 0 -13 -4 -10 -10 4 -6 -1 -7 -11 -3 -12 4 -15 3 -10 -5 4
-7 1 -12 -8 -12 -9 0 -25 -9 -36 -20 -12 -12 -26 -18 -32 -14 -6 4 -8 3 -5 -3
4 -6 0 -17 -9 -24 -13 -10 -17 -10 -26 2 -8 11 -9 11 -5 -3 4 -11 -15 -35 -60
-75 -36 -32 -70 -57 -75 -55 -6 2 -8 -4 -5 -13 4 -8 2 -15 -4 -15 -5 0 -13 -8
-16 -17 -10 -27 -31 -45 -43 -38 -6 4 -10 3 -9 -2 4 -13 -13 -64 -19 -59 -3 3
-17 -18 -31 -47 -15 -30 -32 -52 -41 -51 -9 1 -16 -9 -18 -25 -7 -66 -6 -76 7
-73 7 1 10 -2 7 -7 -9 -14 5 -42 18 -34 6 3 8 3 4 -1 -3 -4 7 -37 23 -72 16
-36 27 -70 23 -76 -4 -6 -3 -8 4 -4 10 6 65 -95 65 -121 0 -7 4 -13 9 -13 4 0
8 -9 8 -19 0 -11 11 -32 24 -48 23 -27 42 -70 38 -85 -1 -5 3 -8 9 -8 6 0 9
-7 5 -15 -3 -8 -1 -15 4 -15 5 0 16 -11 25 -23 14 -22 13 -28 -11 -81 -28 -61
-40 -64 -50 -11 -3 18 -12 36 -20 39 -11 4 -11 11 -4 32 9 22 8 25 -3 16 -11
-9 -16 -6 -25 14 -7 14 -12 31 -12 38 0 8 -7 19 -16 27 -8 7 -13 21 -11 31 3
10 2 16 -3 13 -11 -7 -22 24 -13 37 3 6 1 8 -4 5 -6 -4 -17 8 -24 26 -7 17
-15 34 -18 37 -3 3 -12 15 -19 28 -9 17 -9 22 0 22 6 0 2 9 -10 20 -12 12 -22
27 -22 34 0 8 -7 19 -15 26 -9 7 -14 19 -11 27 4 8 1 11 -5 7 -8 -4 -9 1 -4
17 7 23 7 24 -9 4 -15 -20 -15 -20 -16 2 0 32 -51 163 -62 163 -6 0 -7 7 -4
16 3 8 2 12 -3 9 -5 -3 -12 -1 -16 5 -4 6 -10 8 -15 5 -4 -3 -10 8 -13 23 -3
15 -8 36 -12 47 -6 19 -2 20 42 16 26 -2 51 -8 55 -15 6 -8 8 -7 8 2 0 6 5 12
11 12 6 0 8 -7 5 -16 -3 -8 -2 -12 4 -9 6 3 10 1 10 -6 0 -23 37 21 71 84 18
34 35 64 38 67 3 3 15 22 25 43 11 20 25 37 32 37 8 0 11 6 7 17 -5 12 -3 14
7 8 9 -5 11 -4 6 3 -4 7 9 27 31 47 21 19 35 35 30 35 -4 0 6 14 22 31 16 17
32 30 35 30 3 -1 14 7 25 17 82 76 131 111 150 104 9 -3 11 0 6 8 -6 10 -4 12
9 7 10 -4 15 -3 11 3 -7 11 29 32 39 23 3 -4 16 3 29 14 12 11 40 28 62 38 22
9 47 20 55 25 22 11 83 24 99 21 8 -1 10 2 6 9 -5 9 -1 10 15 5 17 -5 21 -4
15 5 -5 8 -4 11 2 7 6 -4 25 -2 44 4 79 24 335 32 474 15z m691 -366 c5 1 10
-3 12 -9 2 -6 0 -11 -5 -11 -12 0 -33 22 -33 35 0 5 4 4 9 -3 4 -8 12 -13 17
-12z m-990 -109 c-8 -12 -46 -21 -46 -11 0 5 10 11 23 13 12 2 23 5 25 6 2 0
1 -3 -2 -8z m-1163 -1029 c-18 -5 -27 3 -18 17 4 7 10 7 20 -2 11 -10 11 -13
-2 -15z"/>
<path d="M3460 4186 c0 -2 7 -7 16 -10 8 -3 12 -2 9 4 -6 10 -25 14 -25 6z"/>
<path d="M2818 4143 c7 -3 16 -2 19 1 4 3 -2 6 -13 5 -11 0 -14 -3 -6 -6z"/>
<path d="M3756 4052 c-3 -5 1 -9 9 -9 8 0 12 4 9 9 -3 4 -7 8 -9 8 -2 0 -6 -4
-9 -8z"/>
<path d="M3910 3946 c0 -2 8 -10 18 -17 15 -13 16 -12 3 4 -13 16 -21 21 -21
13z"/>
<path d="M2101 3674 c0 -11 3 -14 6 -6 3 7 2 16 -1 19 -3 4 -6 -2 -5 -13z"/>
<path d="M2065 3649 c-4 -6 -5 -12 -2 -15 2 -3 7 2 10 11 7 17 1 20 -8 4z"/>
<path d="M2036 3544 c-9 -24 -2 -26 12 -4 7 11 8 20 3 20 -5 0 -12 -7 -15 -16z"/>
<path d="M2086 3198 c3 -5 10 -6 15 -3 13 9 11 12 -6 12 -8 0 -12 -4 -9 -9z"/>
<path d="M4465 4231 c-3 -5 -2 -12 3 -15 5 -3 9 1 9 9 0 17 -3 19 -12 6z"/>
<path d="M3245 3611 c-133 -35 -245 -143 -292 -282 -10 -30 -29 -68 -41 -83
-51 -66 -55 -215 -7 -287 43 -65 187 -203 235 -225 247 -115 492 18 566 306
21 83 14 242 -14 313 -43 111 -146 212 -246 242 -62 19 -160 27 -201 16z m133
-40 c95 -49 151 -173 172 -378 19 -186 -12 -354 -78 -423 -73 -76 -211 -63
-280 28 l-25 32 34 0 c19 0 57 11 84 24 136 63 196 236 129 372 -49 100 -135
153 -247 154 l-67 0 6 28 c10 40 49 114 70 134 56 50 137 62 202 29z m106 -32
c-3 -5 1 -7 8 -4 18 7 59 -23 107 -77 42 -47 51 -64 29 -53 -7 4 -5 0 6 -9 10
-8 15 -20 10 -27 -4 -7 -3 -10 3 -6 21 13 49 -135 45 -233 -3 -59 -41 -182
-54 -174 -4 3 -5 -2 -2 -10 3 -9 1 -16 -5 -16 -6 0 -11 -7 -11 -15 0 -8 -10
-26 -22 -41 -13 -14 -23 -30 -23 -35 0 -5 -4 -9 -8 -8 -5 0 -15 -8 -23 -18
-18 -24 -18 -8 0 25 23 43 29 65 27 102 -1 25 1 31 8 21 10 -16 7 221 -3 238
-3 5 -1 11 4 13 7 2 6 16 -4 39 -8 20 -13 39 -10 42 5 5 -14 77 -33 127 -4 8
-5 18 -5 23 1 4 -3 7 -9 7 -8 0 -7 5 1 15 11 13 10 14 -2 10 -17 -7 -32 20
-21 37 3 6 1 8 -4 5 -6 -4 -16 0 -23 8 -7 8 -9 15 -4 15 4 0 -1 7 -12 15 -18
14 -17 15 8 4 15 -7 25 -16 22 -20z m-376 -46 c-9 -10 -13 -25 -11 -33 4 -13
3 -13 -6 0 -6 8 -11 13 -11 10 -1 -3 -2 -27 -4 -53 -4 -59 8 -67 92 -67 33 0
76 -7 97 -15 43 -19 107 -74 99 -87 -3 -5 0 -7 6 -6 10 3 30 -40 44 -98 5 -19
3 -22 -11 -18 -11 4 -14 3 -7 -3 6 -4 13 -15 17 -25 8 -21 -7 -74 -21 -71 -5
1 -8 -7 -4 -19 4 -16 2 -19 -8 -13 -9 5 -11 4 -6 -3 10 -16 -12 -54 -26 -46
-7 4 -8 2 -4 -5 9 -14 -12 -43 -25 -35 -5 3 -9 0 -9 -6 0 -7 -7 -10 -15 -6 -8
3 -14 0 -12 -7 1 -8 -15 -12 -50 -12 -28 0 -54 -3 -58 -7 -4 -4 5 -5 21 -3
l29 5 -28 -15 c-15 -9 -33 -13 -40 -9 -6 4 -9 4 -5 -1 4 -4 1 -14 -7 -22 -8
-8 -15 -20 -14 -26 0 -9 2 -8 6 1 2 6 9 12 15 12 6 0 8 -7 5 -14 -4 -10 -1
-13 8 -10 10 4 12 -1 8 -18 -3 -17 -2 -19 5 -9 8 11 12 9 23 -10 11 -21 10
-22 -3 -12 -8 7 -18 10 -22 6 -3 -4 -12 1 -19 10 -6 9 -19 17 -27 19 -21 4
-36 20 -44 46 -4 12 -12 22 -18 22 -6 0 -6 -6 2 -15 7 -9 8 -15 2 -15 -10 0
-26 29 -24 43 1 4 -5 7 -13 7 -8 0 -15 7 -15 15 0 8 -6 15 -14 15 -8 0 -25 15
-38 32 -12 18 -31 41 -41 51 -11 11 -17 27 -14 38 3 10 1 17 -4 13 -5 -3 -9
24 -9 60 0 46 4 66 13 66 9 0 9 2 -1 8 -18 12 -3 45 18 39 12 -3 17 2 17 17 0
32 14 76 23 71 5 -3 6 5 2 17 -4 16 -2 19 8 13 9 -6 11 -4 6 4 -5 7 0 21 11
33 10 12 12 18 6 14 -7 -4 -5 6 5 23 9 17 22 30 27 30 6 -1 17 -1 25 0 12 1
11 4 -3 12 -16 10 -16 12 5 29 13 11 19 20 13 20 -5 0 1 7 15 15 33 19 36 18
18 -2z"/>
<path d="M3610 3381 c0 -6 4 -13 10 -16 6 -3 7 1 4 9 -7 18 -14 21 -14 7z"/>
<path d="M2926 3003 c-6 -14 -5 -15 5 -6 7 7 10 15 7 18 -3 3 -9 -2 -12 -12z"/>
<path d="M4972 3593 c-6 -15 -24 -64 -41 -108 -55 -144 -201 -520 -211 -540
-5 -11 -19 -45 -31 -75 -37 -93 -79 -126 -169 -133 -34 -3 -47 29 -66 160 -9
59 -24 126 -35 148 -24 51 -85 90 -167 106 -34 6 -61 13 -59 15 2 2 30 9 62
15 60 11 145 48 178 77 42 37 62 145 36 195 -31 59 -86 99 -174 125 -64 18
-551 31 -541 13 4 -6 18 -11 32 -11 13 0 33 -9 44 -20 18 -18 20 -33 20 -137
0 -65 3 -128 6 -140 4 -13 2 -23 -4 -23 -5 0 -12 13 -15 29 -8 40 -49 131 -59
131 -17 0 -18 -26 -4 -66 29 -84 40 -214 27 -320 -11 -93 -44 -211 -78 -279
-23 -45 -122 -175 -139 -182 -8 -3 -12 -13 -9 -22 3 -11 -4 -21 -23 -29 -71
-33 -92 -47 -92 -60 0 -9 7 -13 20 -9 17 4 20 0 20 -33 0 -84 100 -122 161
-61 23 24 29 38 29 75 0 36 -5 50 -27 71 -15 14 -36 25 -45 25 -12 0 8 25 57
71 41 39 77 79 80 90 6 18 18 19 176 19 166 0 205 8 132 26 -58 14 -63 33 -63
237 l0 177 75 0 c150 0 184 -36 210 -225 9 -60 23 -125 33 -145 32 -65 120
-101 193 -79 19 5 91 10 162 9 123 -1 166 10 92 24 -63 12 -70 56 -26 161 l30
70 173 3 173 2 33 -84 c46 -119 43 -142 -19 -152 -88 -14 -28 -24 151 -24 175
0 234 9 160 23 -46 10 -94 64 -125 142 -15 39 -34 84 -41 100 -11 26 -104 254
-223 550 -39 97 -61 116 -79 68z m-1000 -419 c-1 -287 1 -401 9 -411 7 -7 10
-15 8 -17 -4 -5 -88 -9 -104 -6 -5 1 -13 2 -17 1 -11 -1 -10 7 4 32 13 25 13
86 -1 100 -6 6 -12 -9 -16 -39 -8 -66 -19 -90 -44 -97 -26 -6 -26 -3 0 39 11
19 22 57 24 86 l4 53 -18 -37 c-19 -38 -35 -88 -33 -100 1 -4 -5 -5 -13 -2
-10 4 -11 10 -5 22 10 17 31 69 36 87 6 24 16 75 25 129 10 60 7 205 -5 225
-4 7 -1 9 8 5 8 -3 23 3 32 15 14 16 18 41 19 118 1 54 -4 119 -10 146 l-12
47 56 0 56 0 -3 -396z m253 368 c75 -43 108 -127 85 -221 -22 -92 -83 -131
-222 -139 l-88 -5 0 198 0 197 93 -4 c72 -3 101 -9 132 -26z m117 -5 c9 -1 14
-5 12 -9 -3 -4 0 -8 5 -8 20 0 89 -75 95 -103 4 -19 3 -26 -3 -22 -7 4 -8 -2
-2 -17 10 -28 -21 -98 -45 -98 -8 0 -13 -4 -10 -9 5 -7 -11 -19 -34 -26 -31
-8 -50 -18 -50 -26 0 -6 -4 -7 -10 -4 -6 4 -5 11 3 19 6 8 16 12 20 9 5 -3 7
1 6 8 -1 8 3 34 10 58 15 52 2 148 -26 190 -10 14 -16 30 -15 34 1 5 -2 6 -7
3 -5 -4 -13 -1 -17 5 -5 9 1 10 22 5 16 -4 37 -8 46 -9z m690 -42 c14 -30 22
-58 17 -61 -5 -3 -9 -11 -9 -17 0 -9 3 -8 8 1 6 9 12 5 20 -13 15 -33 15 -38
0 -29 -7 4 -3 -3 10 -15 12 -12 22 -29 22 -37 0 -8 7 -26 16 -39 9 -13 12 -30
8 -36 -5 -8 -3 -9 6 -4 10 6 12 4 7 -8 -4 -10 -1 -17 5 -17 6 0 8 -3 5 -6 -4
-4 3 -19 13 -35 19 -26 19 -28 3 -45 -17 -17 -17 -18 0 -11 14 5 22 -3 37 -41
11 -26 24 -55 30 -64 5 -10 10 -23 10 -28 0 -6 10 -32 22 -58 12 -26 22 -50
22 -54 1 -3 4 -9 8 -13 4 -4 4 -14 1 -23 -4 -10 -2 -13 5 -8 8 5 10 2 6 -8 -3
-9 -11 -13 -17 -9 -6 3 -7 1 -3 -5 4 -6 12 -9 19 -7 12 5 50 -51 43 -63 -2 -4
-35 -6 -74 -4 -63 3 -69 5 -65 23 3 11 0 41 -8 67 -7 26 -12 49 -10 51 1 2 -2
7 -9 11 -6 4 -12 14 -14 22 -1 8 -10 28 -20 43 -11 16 -20 36 -21 44 -1 9 -5
25 -9 36 -41 107 -44 115 -75 189 -12 26 -18 53 -14 59 3 6 1 7 -5 3 -11 -7
-16 7 -15 41 1 7 -3 11 -7 8 -4 -3 -11 2 -14 11 -4 10 -2 13 7 8 13 -8 -19 34
-42 53 -12 11 -12 15 0 30 11 13 11 15 1 9 -11 -7 -11 -2 1 20 8 16 17 41 21
57 10 42 30 32 58 -28z m-12 -292 c41 -103 77 -190 78 -195 2 -4 -69 -8 -158
-8 -126 0 -161 3 -157 13 3 6 20 48 37 92 88 222 115 285 120 285 3 0 39 -84
80 -187z m-708 -102 c2 0 15 -4 31 -10 31 -12 35 -26 10 -40 -10 -6 -13 -11
-6 -11 6 0 15 5 18 10 3 6 10 10 14 10 13 0 31 -49 24 -67 -4 -9 -2 -14 3 -10
5 3 10 -11 11 -31 0 -21 4 -50 7 -67 4 -16 9 -50 13 -75 3 -25 13 -56 21 -69
16 -23 15 -23 -8 -17 -14 4 -33 10 -42 12 -10 3 -18 9 -18 14 0 5 -8 7 -17 3
-17 -6 -17 -5 0 14 14 16 15 23 6 29 -7 4 -10 3 -5 -4 9 -15 -13 -27 -27 -13
-12 12 -13 15 -27 121 -14 101 -33 190 -40 185 -3 -2 -10 7 -17 21 -11 23 -11
23 18 8 16 -8 30 -14 31 -13z m382 -336 c3 -8 -3 -19 -13 -25 -15 -7 -20 -6
-24 10 -4 17 4 27 24 29 4 1 9 -6 13 -14z m-927 -10 c0 -8 -4 -12 -9 -9 -4 3
-8 9 -8 15 0 5 4 9 8 9 5 0 9 -7 9 -15z m-11 -27 c4 -7 3 -8 -5 -4 -7 4 -15
-2 -20 -16 -6 -14 -10 -17 -10 -7 -1 8 4 20 11 27 15 15 15 15 24 0z m-116
-238 c28 -28 27 -93 -2 -120 -28 -26 -56 -25 -85 2 -48 45 -19 138 42 138 14
0 34 -9 45 -20z"/>
<path d="M3891 2764 c0 -11 3 -14 6 -6 3 7 2 16 -1 19 -3 4 -6 -2 -5 -13z"/>
<path d="M5096 3117 c3 -10 9 -15 12 -12 3 3 0 11 -7 18 -10 9 -11 8 -5 -6z"/>
<path d="M587 3569 c15 -30 14 -103 -1 -140 -5 -12 0 -18 20 -23 32 -8 69 21
77 62 3 15 16 43 29 62 l24 35 169 3 c161 2 168 2 153 -15 -9 -10 -53 -79 -98
-153 -46 -74 -97 -157 -115 -185 -18 -27 -96 -152 -173 -277 l-140 -228 358 0
359 0 -15 28 c-18 35 -18 99 0 134 14 26 13 28 -9 34 -42 10 -62 -4 -90 -67
-46 -102 -37 -99 -247 -99 -172 0 -180 1 -166 18 16 17 66 97 311 492 76 124
154 248 171 275 18 28 36 56 40 63 6 9 -64 12 -333 12 l-339 0 15 -31z m113
-6 c0 -2 -11 -20 -24 -40 -14 -19 -22 -42 -19 -51 4 -9 2 -13 -4 -9 -6 4 -13
-3 -16 -15 -11 -41 -17 -13 -8 40 5 31 4 55 -2 61 -16 16 1 27 37 23 20 -2 36
-6 36 -9z m460 -59 c-22 -35 -57 -82 -79 -104 -22 -23 -38 -47 -35 -55 5 -13
-58 -123 -78 -136 -5 -3 -10 -10 -10 -15 -1 -17 -17 -49 -38 -74 -12 -14 -19
-20 -17 -15 3 6 2 17 -4 25 -6 11 -8 5 -5 -17 2 -18 -1 -33 -6 -33 -5 0 -7 -3
-4 -8 2 -4 -13 -34 -35 -66 -21 -32 -39 -61 -39 -65 0 -5 -9 -16 -20 -26 -11
-10 -20 -26 -20 -37 0 -10 -4 -18 -10 -18 -5 0 -10 -7 -10 -16 0 -8 -4 -13 -9
-10 -5 3 -12 -6 -15 -19 -4 -16 -11 -23 -18 -19 -8 5 -9 1 -5 -10 5 -13 3 -17
-7 -13 -10 4 -12 0 -8 -15 3 -14 1 -19 -6 -14 -7 4 -12 3 -12 -2 0 -13 -43 -2
-52 12 -5 7 -8 3 -8 -9 -1 -19 -1 -19 -11 -2 -9 15 -6 23 15 42 13 12 22 25
20 28 -3 3 10 27 29 54 19 27 38 59 41 71 4 12 12 20 17 17 5 -4 9 1 9 9 0 9
4 16 10 16 5 0 7 6 4 13 -3 8 2 20 11 27 8 7 15 16 15 21 0 5 14 28 30 51 17
22 30 47 30 54 0 7 6 17 14 21 7 4 25 31 41 58 15 28 32 53 39 57 6 4 7 8 1 8
-5 0 1 7 13 16 12 8 22 24 22 35 0 10 5 19 10 19 6 0 10 7 10 16 0 8 4 12 10
9 5 -3 7 0 5 8 -3 7 3 24 15 37 11 13 31 47 45 77 14 29 30 53 36 53 6 0 8 3
6 8 -3 4 19 5 48 4 l54 -4 -39 -64z m-66 -119 c-4 -9 -16 -21 -28 -27 -19 -10
-19 -9 3 16 28 30 33 32 25 11z m99 -578 l3 -65 -42 -4 -42 -3 22 40 c11 22
24 42 28 45 3 3 10 18 13 33 11 41 16 28 18 -46z"/>
<path d="M1061 3418 c-14 -23 -14 -23 8 -4 22 20 25 26 13 26 -4 0 -13 -10
-21 -22z"/>
<path d="M974 3269 c-3 -6 -2 -15 3 -20 5 -5 9 -1 9 11 0 23 -2 24 -12 9z"/>
<path d="M786 3053 c-6 -14 -5 -15 5 -6 7 7 10 15 7 18 -3 3 -9 -2 -12 -12z"/>
<path d="M760 3001 c0 -6 4 -13 10 -16 6 -3 7 1 4 9 -7 18 -14 21 -14 7z"/>
<path d="M646 2777 c3 -10 9 -15 12 -12 3 3 0 11 -7 18 -10 9 -11 8 -5 -6z"/>
<path d="M1290 3590 c0 -5 15 -10 33 -10 17 0 41 -7 52 -16 19 -14 20 -28 23
-396 3 -430 4 -423 -68 -434 -89 -14 -30 -24 145 -24 102 0 185 4 185 8 0 5
-19 12 -42 18 -69 15 -68 10 -66 432 l3 374 24 19 c13 10 36 19 52 19 16 0 29
5 29 10 0 6 -68 10 -185 10 -117 0 -185 -4 -185 -10z m246 -28 c-15 -3 -16 -6
-5 -13 9 -6 10 -9 2 -9 -18 0 -18 -747 0 -769 9 -12 9 -13 0 -7 -9 5 -11 2 -7
-8 3 -9 11 -13 18 -9 6 3 8 3 4 -2 -10 -11 -117 -12 -110 -1 3 5 -2 7 -11 3
-19 -7 -20 -6 -11 17 3 9 9 14 13 12 3 -2 5 57 4 132 -7 377 -7 560 -1 556 12
-8 -4 59 -21 86 -15 24 -15 24 2 11 15 -12 17 -12 12 0 -4 11 8 13 62 10 38
-2 59 -6 49 -9z"/>
<path d="M4453 3235 c0 -8 4 -12 9 -9 5 3 6 10 3 15 -9 13 -12 11 -12 -6z"/>
<path d="M1125 2940 c-3 -6 1 -7 9 -4 18 7 21 14 7 14 -6 0 -13 -4 -16 -10z"/>
<path d="M4280 2605 c-32 -45 -60 -75 -71 -75 -12 0 -16 -6 -12 -21 5 -16 -10
-37 -63 -91 -213 -216 -457 -359 -729 -427 -258 -64 -559 -52 -838 35 -126 39
-330 143 -437 222 l-95 70 -30 -16 c-16 -10 -32 -18 -33 -19 -2 -1 39 -44 91
-95 168 -166 365 -288 577 -357 173 -57 236 -66 455 -66 183 1 209 3 305 27
286 72 510 201 694 399 38 41 76 85 84 99 9 14 21 30 27 35 13 11 25 33 107
195 32 63 58 122 58 131 0 14 -19 29 -34 29 -2 0 -27 -34 -56 -75z m24 -39
c-3 -9 -10 -16 -15 -16 -4 0 -6 -7 -3 -15 7 -16 -30 -68 -40 -57 -4 3 -4 -1 0
-11 3 -9 2 -17 -4 -17 -10 0 -36 -57 -33 -72 0 -5 -4 -8 -10 -8 -5 0 -8 -4 -5
-9 8 -12 -19 -33 -29 -23 -5 4 -5 2 -2 -4 4 -7 0 -17 -8 -24 -8 -7 -15 -18
-15 -25 0 -15 -35 -47 -42 -39 -4 3 -9 -4 -13 -15 -3 -12 -13 -21 -20 -21 -8
0 -17 -5 -21 -12 -5 -8 -1 -9 12 -5 18 7 18 7 0 -7 -10 -8 -40 -36 -67 -61
-27 -26 -49 -44 -49 -40 0 3 -6 0 -14 -7 -8 -7 -11 -17 -8 -23 3 -5 -2 -4 -11
4 -10 8 -20 11 -24 7 -3 -3 -1 -6 5 -6 7 0 12 -5 12 -11 0 -5 -4 -7 -10 -4 -5
3 -10 1 -10 -6 0 -7 -3 -10 -6 -7 -3 3 -17 -5 -32 -19 -15 -14 -36 -29 -47
-35 -20 -9 -20 -9 -1 6 11 9 16 16 10 16 -14 0 -30 -13 -36 -31 -4 -9 -23 -24
-45 -33 -21 -9 -46 -21 -55 -26 -10 -6 -24 -10 -33 -10 -8 0 -31 -9 -50 -20
-20 -11 -40 -18 -45 -15 -5 3 -20 -1 -32 -9 -13 -8 -50 -20 -83 -27 -33 -7
-67 -14 -75 -16 -51 -13 -69 -16 -107 -16 -24 0 -41 -2 -39 -6 2 -3 -44 -5
-102 -3 -59 1 -129 2 -157 2 -38 0 -47 2 -35 10 12 9 10 10 -7 5 -31 -9 -114
5 -107 17 4 6 -1 8 -14 4 -19 -6 -197 47 -216 65 -6 5 -18 9 -28 9 -22 0 -57
19 -79 43 -9 9 -28 17 -42 17 -21 0 -25 4 -22 22 4 16 2 19 -7 10 -15 -15 -31
-16 -22 0 4 7 3 8 -4 4 -14 -8 -62 21 -62 38 0 6 5 4 10 -4 5 -8 10 -10 10 -4
0 19 -13 24 -28 11 -13 -10 -15 -9 -9 6 4 10 3 16 -3 12 -5 -3 -18 2 -30 12
-11 10 -24 18 -28 18 -12 -1 -53 39 -78 75 -13 19 -24 30 -24 24 0 -5 3 -14 8
-19 4 -6 -10 7 -31 28 -21 21 -35 42 -31 48 4 7 1 10 -7 7 -8 -3 -19 1 -26 8
-17 17 -16 19 7 21 11 1 18 -2 16 -6 -3 -4 6 -14 19 -21 13 -7 21 -18 18 -23
-4 -6 0 -8 10 -4 11 4 14 2 10 -9 -4 -10 0 -12 11 -8 9 3 16 1 16 -6 0 -6 4
-9 9 -6 9 6 34 -18 27 -25 -2 -2 7 -5 22 -6 14 0 31 -8 38 -17 6 -9 25 -21 43
-27 17 -6 28 -15 25 -20 -3 -5 -2 -8 3 -7 4 1 28 -6 53 -16 25 -11 50 -20 55
-20 6 -1 30 -12 54 -24 24 -13 53 -25 65 -26 11 -2 28 -6 36 -9 54 -19 84 -26
93 -20 6 4 7 1 2 -7 -6 -10 -4 -12 9 -7 9 4 24 3 34 -2 26 -13 102 -29 97 -20
-3 4 20 1 50 -6 69 -16 363 -13 455 4 93 18 180 41 215 56 69 32 139 54 149
48 6 -3 8 -2 3 2 -8 10 82 57 95 49 4 -3 8 -1 8 5 0 5 22 22 50 38 27 15 50
31 50 35 0 4 6 5 14 2 8 -3 17 0 22 7 5 8 3 10 -7 5 -8 -4 -3 2 10 13 13 12
29 21 37 21 8 0 14 4 14 10 0 5 10 14 21 21 13 7 19 7 15 1 -3 -6 -2 -13 3
-16 5 -4 8 5 7 18 -2 17 1 23 11 19 9 -4 11 0 6 13 -4 11 -3 15 5 10 10 -6 49
23 54 42 1 4 8 6 15 4 8 -2 10 3 6 15 -6 16 -5 16 10 4 15 -12 17 -12 12 1 -4
9 5 25 23 39 15 14 31 32 35 42 4 10 11 16 16 12 5 -3 12 -1 16 5 3 5 1 10 -5
10 -8 0 -7 5 2 15 7 8 29 35 48 59 36 45 45 51 34 22z"/>
<path d="M4100 2320 c6 -11 13 -20 16 -20 2 0 0 9 -6 20 -6 11 -13 20 -16 20
-2 0 0 -9 6 -20z"/>
<path d="M4075 2299 c-4 -6 -5 -12 -2 -15 2 -3 7 2 10 11 7 17 1 20 -8 4z"/>
<path d="M4115 2279 c-4 -6 -5 -12 -2 -15 2 -3 7 2 10 11 7 17 1 20 -8 4z"/>
<path d="M1845 2550 c-2 -3 5 -6 15 -7 11 -1 22 2 24 5 3 4 -4 8 -15 8 -11 0
-22 -3 -24 -6z"/>
<path d="M1913 2520 c-39 -24 -53 -48 -53 -95 0 -71 86 -119 151 -85 34 19 20
29 -34 23 -42 -4 -55 -2 -67 12 -21 26 -18 89 5 115 17 19 27 21 68 17 52 -7
61 3 22 21 -36 17 -55 15 -92 -8z"/>
<path d="M2696 2533 c-3 -3 -6 -37 -6 -75 0 -37 -3 -68 -7 -68 -5 1 -28 32
-52 70 -29 46 -51 70 -63 70 -16 0 -18 -9 -18 -100 0 -82 3 -100 15 -100 12 0
15 16 16 78 0 63 2 74 12 59 43 -67 101 -137 113 -137 11 0 14 21 14 99 0 91
-7 121 -24 104z"/>
<path d="M2933 2520 c-53 -32 -62 -116 -18 -164 18 -20 34 -26 65 -26 112 0
140 160 35 200 -36 14 -45 13 -82 -10z m97 -30 c43 -43 11 -140 -46 -140 -59
0 -90 110 -42 144 31 22 64 20 88 -4z"/>
<path d="M3910 2529 c-40 -16 -60 -49 -60 -102 0 -61 33 -97 89 -97 71 0 81 8
81 56 l0 44 -40 0 c-22 0 -40 -4 -40 -10 0 -5 11 -10 25 -10 20 0 25 -5 25
-24 0 -41 -54 -49 -88 -13 -29 31 -30 89 -1 118 18 18 29 20 70 15 56 -8 66 6
18 23 -38 13 -46 13 -79 0z"/>
<path d="M4730 2527 c-19 -10 -25 -20 -25 -47 0 -28 5 -37 30 -49 72 -37 76
-41 65 -61 -12 -23 -50 -26 -80 -8 -26 16 -40 0 -16 -18 31 -22 92 -18 116 8
11 12 20 27 20 34 0 16 -40 47 -80 64 -23 9 -30 18 -28 34 3 18 9 21 51 19 51
-3 63 11 21 27 -33 13 -44 12 -74 -3z"/>
<path d="M1250 2520 c0 -5 16 -10 36 -10 l36 0 -4 -90 c-3 -82 -1 -90 15 -90
17 0 19 8 15 90 l-3 90 38 0 c20 0 37 5 37 10 0 6 -35 10 -85 10 -50 0 -85 -4
-85 -10z"/>
<path d="M1570 2430 l0 -100 65 0 c45 0 65 4 65 13 0 8 -15 11 -50 9 l-50 -4
0 36 0 36 46 0 c32 0 44 4 41 13 -2 7 -21 12 -43 12 -37 0 -39 2 -42 33 l-3
32 50 0 c28 0 51 5 51 10 0 6 -28 10 -65 10 l-65 0 0 -100z"/>
<path d="M2200 2430 c0 -82 3 -100 15 -100 11 0 15 12 15 45 l0 45 56 0 56 0
-4 -45 c-3 -38 0 -45 14 -45 16 0 18 11 18 100 0 89 -2 100 -18 100 -14 0 -17
-7 -14 -39 l4 -39 -49 -4 c-26 -3 -51 -3 -55 -1 -5 2 -8 22 -8 44 0 28 -4 39
-15 39 -12 0 -15 -18 -15 -100z"/>
<path d="M3091 2513 c7 -12 15 -20 18 -17 3 2 -3 12 -13 22 -17 16 -18 16 -5
-5z"/>
<path d="M3245 2430 l0 -100 63 0 c46 0 63 3 60 12 -3 8 -20 11 -46 9 l-42 -3
0 91 c0 80 -2 91 -17 91 -16 0 -18 -11 -18 -100z"/>
<path d="M4405 2430 l0 -100 68 0 c49 0 68 3 65 12 -3 8 -22 11 -55 9 l-50 -2
1 35 c1 35 2 36 43 36 32 0 43 4 43 15 0 11 -10 14 -42 12 -42 -2 -43 -1 -43
28 1 29 3 30 53 33 76 4 64 22 -15 22 l-68 0 0 -100z"/>
<path d="M4850 2466 c0 -2 8 -10 18 -17 15 -13 16 -12 3 4 -13 16 -21 21 -21
13z"/>
<path d="M1916 2435 c-14 -15 -14 -18 1 -41 9 -14 23 -24 32 -22 23 5 25 41 3
62 -18 16 -21 16 -36 1z"/>
<path d="M1470 2297 c0 -30 119 -231 200 -337 247 -324 599 -557 988 -654 180
-45 237 -51 462 -50 193 1 228 4 345 28 548 114 975 430 1254 929 27 47 31 61
21 72 -21 25 -35 17 -86 -52 -102 -141 -291 -311 -473 -427 -336 -216 -810
-336 -1200 -306 -494 39 -924 228 -1245 546 -84 84 -170 185 -209 247 -22 34
-57 37 -57 4z m80 -91 c0 -12 -5 -7 -19 24 -11 24 -11 24 3 6 9 -11 16 -24 16
-30z m3125 -16 c3 -5 1 -10 -4 -10 -6 0 -11 5 -11 10 0 6 2 10 4 10 3 0 8 -4
11 -10z m-3105 -14 c-1 -5 4 -13 12 -17 9 -6 9 -9 1 -9 -7 0 -17 10 -24 21 -8
16 -8 20 1 17 6 -2 11 -7 10 -12z m3090 -16 c0 -5 -7 -10 -15 -10 -8 0 -15 -7
-15 -15 0 -24 -2 -29 -19 -43 -12 -10 -12 -12 -1 -6 8 4 3 -5 -12 -20 -15 -16
-25 -32 -22 -37 3 -5 -2 -9 -11 -9 -10 0 -13 5 -9 12 4 7 3 8 -4 4 -6 -4 -9
-13 -5 -22 3 -8 -2 -21 -12 -28 -10 -7 -15 -18 -11 -24 10 -16 -7 -15 -23 1
-10 10 -11 9 -6 -5 5 -11 -2 -26 -19 -43 -15 -15 -23 -31 -20 -37 5 -7 1 -9
-9 -5 -12 5 -19 -1 -23 -18 -3 -14 -10 -22 -15 -19 -5 3 -9 -1 -9 -8 0 -8 -16
-30 -37 -49 -20 -18 -33 -28 -29 -22 5 9 2 11 -8 7 -9 -3 -13 -10 -10 -15 3
-5 0 -9 -6 -9 -6 0 -8 -4 -5 -10 3 -6 -1 -7 -10 -4 -11 5 -14 2 -8 -12 5 -14
3 -16 -12 -10 -11 4 -16 4 -13 0 4 -4 -4 -15 -18 -26 -21 -17 -27 -18 -41 -6
-15 12 -15 11 -4 -9 14 -27 9 -29 -13 -7 -9 8 -16 11 -16 5 0 -5 5 -13 10 -16
6 -3 -4 -18 -20 -32 -17 -14 -33 -23 -36 -21 -2 3 -20 -10 -39 -28 -21 -19
-42 -31 -50 -28 -8 4 -15 1 -15 -5 0 -7 -13 -17 -30 -22 -16 -6 -30 -14 -30
-18 0 -3 -9 -12 -21 -19 -12 -8 -18 -9 -14 -3 3 6 -15 -2 -42 -17 -26 -16 -54
-27 -61 -24 -6 2 -12 -1 -12 -6 0 -5 -12 -14 -27 -20 -59 -22 -68 -25 -83 -27
-8 -2 -30 -8 -49 -14 -19 -6 -38 -8 -42 -5 -5 3 -9 0 -9 -6 0 -7 -8 -9 -21 -5
-13 5 -19 3 -15 -3 6 -11 -51 -25 -65 -16 -5 3 -9 0 -9 -6 0 -6 -4 -9 -8 -6
-4 3 -28 0 -53 -5 -155 -36 -406 -37 -619 -5 -129 20 -153 27 -168 45 -8 9
-11 10 -7 4 8 -16 13 -17 -79 12 -43 14 -85 25 -93 25 -8 0 -11 5 -8 10 3 6
-3 10 -14 10 -17 0 -144 53 -160 67 -3 2 4 10 15 18 19 15 19 15 0 8 -13 -4
-17 -3 -12 5 5 8 2 10 -9 5 -13 -5 -14 -7 -3 -14 30 -20 -4 -7 -66 24 -36 19
-63 37 -59 42 5 4 0 5 -10 2 -11 -4 -16 -3 -12 3 3 6 0 10 -8 10 -8 0 -27 12
-43 27 -16 15 -31 26 -34 26 -3 -1 -4 3 -3 8 2 4 -5 5 -14 2 -11 -4 -14 -3 -9
5 7 11 -6 17 -27 13 -5 -1 -6 3 -3 8 4 5 -9 17 -29 27 -19 9 -42 28 -51 43 -9
14 -31 37 -49 51 -18 14 -31 27 -29 29 2 2 -11 15 -30 30 -19 15 -31 32 -28
41 3 8 1 12 -3 8 -9 -9 -42 32 -37 45 1 5 -2 6 -7 3 -5 -3 -15 2 -22 11 -12
14 -12 16 0 9 9 -6 12 -5 10 3 -3 7 -7 11 -10 9 -11 -6 -57 57 -47 63 6 4 1
10 -11 14 -12 3 -19 10 -16 15 3 5 -5 18 -17 29 -12 12 -18 21 -12 21 5 0 3 4
-4 9 -11 7 -11 9 2 14 10 4 16 1 16 -8 0 -8 7 -15 15 -15 9 0 12 -6 9 -15 -5
-11 -2 -13 12 -8 12 4 15 3 10 -5 -4 -7 -2 -12 3 -12 6 0 11 -6 11 -14 0 -8 5
-18 12 -22 7 -5 8 -3 3 6 -6 9 -4 11 4 6 7 -5 10 -14 7 -22 -3 -8 -2 -13 2
-13 25 4 34 -3 29 -22 -4 -16 -3 -18 9 -8 8 6 14 8 14 3 0 -5 16 -20 35 -33
19 -13 35 -29 35 -35 0 -6 -5 -4 -11 4 -9 13 -10 13 -6 0 2 -8 11 -14 19 -12
9 1 21 -5 28 -13 7 -8 19 -15 27 -15 8 0 12 -4 9 -9 -3 -5 1 -12 10 -15 8 -3
13 -10 10 -15 -3 -5 2 -15 12 -22 15 -13 16 -12 3 4 -27 34 30 7 64 -30 11
-13 26 -23 33 -23 7 0 12 -4 12 -8 0 -5 6 -9 13 -9 22 0 107 -64 101 -75 -4
-7 -2 -8 5 -4 6 4 9 11 6 15 -2 5 26 -7 63 -25 100 -49 151 -71 209 -89 33
-11 50 -21 46 -29 -4 -8 -3 -8 6 0 14 13 61 -3 61 -21 0 -5 4 -5 8 2 6 10 23
8 72 -7 36 -11 74 -20 86 -20 11 0 24 -3 27 -7 8 -8 53 -15 87 -14 14 0 32 -2
40 -5 28 -10 114 -15 255 -13 186 2 215 3 215 10 0 3 19 6 43 6 57 1 320 57
310 67 -4 4 1 4 11 0 10 -4 21 -2 25 3 7 11 148 58 168 56 7 0 11 3 8 7 -3 4
2 11 11 14 10 4 13 2 8 -7 -4 -6 4 -2 18 11 14 13 35 24 47 25 11 1 21 4 21 7
0 3 9 11 21 18 17 11 20 11 13 0 -4 -7 2 -5 13 5 11 9 27 17 37 17 9 0 15 4
12 9 -4 5 7 12 23 16 16 3 39 17 51 31 13 13 27 24 31 24 5 0 30 14 56 30 26
17 43 30 38 30 -5 0 0 6 10 14 11 8 26 11 34 8 9 -3 12 -1 7 6 -8 13 33 44 47
35 6 -4 8 1 4 11 -4 10 -3 15 4 11 13 -9 41 14 32 28 -3 6 -1 7 5 3 7 -4 12
-2 12 4 0 6 4 9 8 6 11 -6 9 -36 -2 -56 -7 -12 -6 -13 5 -2 7 7 13 27 14 45 0
19 8 41 18 51 9 10 17 14 17 10 0 -4 10 2 23 14 13 12 28 19 32 15 5 -5 3 0
-4 10 -7 9 -11 18 -7 18 3 1 9 2 14 3 16 3 32 18 31 29 0 9 -2 9 -6 0 -2 -7
-9 -13 -15 -13 -6 0 -5 6 2 15 7 9 19 14 27 11 7 -3 13 0 13 7 0 14 20 37 32
37 4 0 8 -4 8 -10z"/>
<path d="M1755 1960 c-4 -6 -1 -9 7 -8 7 2 12 -3 10 -10 -1 -8 2 -11 8 -7 8 5
7 11 -1 21 -14 17 -16 17 -24 4z"/>
<path d="M4414 1899 c0 -13 3 -15 13 -7 7 6 13 12 13 13 0 2 -6 5 -13 8 -7 3
-13 -3 -13 -14z"/>
<path d="M1796 1867 c3 -10 9 -15 12 -12 3 3 0 11 -7 18 -10 9 -11 8 -5 -6z"/>
<path d="M4365 1810 c-3 -6 1 -7 9 -4 18 7 21 14 7 14 -6 0 -13 -4 -16 -10z"/>
<path d="M4220 1780 c-9 -6 -10 -10 -3 -10 6 0 15 5 18 10 8 12 4 12 -15 0z"/>
<path d="M2085 1711 c-3 -5 0 -13 6 -17 7 -4 9 -3 5 4 -3 5 0 13 6 15 9 4 10
6 1 6 -6 1 -14 -3 -18 -8z"/>
<path d="M2248 1628 c5 -5 16 -8 23 -6 8 3 3 7 -10 11 -17 4 -21 3 -13 -5z"/>
<path d="M1635 2229 c-4 -6 -5 -12 -2 -15 2 -3 7 2 10 11 7 17 1 20 -8 4z"/>
<path d="M2005 1561 c-3 -5 -2 -12 3 -15 5 -3 9 1 9 9 0 17 -3 19 -12 6z"/>
</g>
</svg>
